HIERARCHY
ROOT Hips
{
  OFFSET 0 0 0
  CHANNELS 6 Xposition Yposition Zposition Zrotation Yrotation Xrotation
  JOINT LeftThigh
  {
    OFFSET 8.409438 0 -5.917753
    CHANNELS 3 Zrotation Yrotation Xrotation
    JOINT LeftLeg
    {
      OFFSET 0 0 -42.358652
      CHANNELS 3 Zrotation Yrotation Xrotation
      JOINT LeftFoot
      {
        OFFSET 0 0 -39.357303
        CHANNELS 3 Zrotation Yrotation Xrotation
      }
    }
  }
  JOINT RightThigh
  {
    OFFSET -8.409438 0 -5.917753
    CHANNELS 3 Zrotation Yrotation Xrotation
    JOINT RightLeg
    {
      OFFSET 0 0 -42.358652
      CHANNELS 3 Zrotation Yrotation Xrotation
      JOINT RightFoot
      {
        OFFSET 0 0 -39.357303
        CHANNELS 3 Zrotation Yrotation Xrotation
      }
    }
  }
  JOINT SpineLow
  {
    OFFSET 0 0 4.719101
    CHANNELS 3 Zrotation Yrotation Xrotation
    JOINT SpineMid
    {
      OFFSET 0 0 12.899191
      CHANNELS 3 Zrotation Yrotation Xrotation
      JOINT Chest
      {
        OFFSET 0 0 12.899191
        CHANNELS 3 Zrotation Yrotation Xrotation
        JOINT LeftShoulder
        {
          OFFSET 7.550562 1.41573 9.438202
          CHANNELS 3 Zrotation Yrotation Xrotation
          JOINT LeftArm
          {
            OFFSET 9.155056 0 4.247191
            CHANNELS 3 Zrotation Yrotation Xrotation
            JOINT LeftForearm
            {
              OFFSET 0 0 25.771955
              CHANNELS 3 Zrotation Yrotation Xrotation
              JOINT LeftHand
              {
                OFFSET 0 0 25.197169
                CHANNELS 3 Zrotation Yrotation Xrotation
              }
            }
          }
        }
        JOINT RightShoulder
        {
          OFFSET -7.550562 1.41573 9.438202
          CHANNELS 3 Zrotation Yrotation Xrotation
          JOINT RightArm
          {
            OFFSET -9.155056 0 4.247191
            CHANNELS 3 Zrotation Yrotation Xrotation
            JOINT RightForearm
            {
              OFFSET 0 0 -25.771955
              CHANNELS 3 Zrotation Yrotation Xrotation
              JOINT RightHand
              {
                OFFSET 0 0 -25.197169
                CHANNELS 3 Zrotation Yrotation Xrotation
              }
            }
          }
        }
        JOINT Neck
        {
          OFFSET 0 0 15.101124
          CHANNELS 3 Zrotation Yrotation Xrotation
          JOINT Head
          {
            OFFSET 0 0 11.325843
            CHANNELS 3 Zrotation Yrotation Xrotation
            End Site
            {
              OFFSET 0 0 14.157303
            }
          }
        }
      }
    }
  }
}
MOTION
Frames: 11
Frame Time: 0.0
0.0  93.25843  0.0  8.875258  27.159155  -77.986972  -19.377528  -10.272196  -26.426644  -12.913426  2.843006  20.16177  7.74417  0.724167  7.10273  -39.614273  4.851935  -18.759311  -18.608706  12.86245  14.422318  7.00791  3.760843  -0.855901  1.871044  2.003276  -0.806569  5.057608  5.533818  -2.052347  5.057608  5.533817  -2.052347  13.358476  -2.608964  11.595532  167.392937  20.290442  -160.953835  -3.318729  12.905353  103.797507  11.796872  -3.940809  43.347556  41.537202  -25.376167  23.01258  -146.11667  80.995587  -141.557641  -5.903646  17.033008  -47.496414  84.458241  -35.565175  19.551164  -22.737653  -4.354054  1.336746  -17.035582  -3.320749  0.841058  
0.0  93.25843  0.0  9.03586  27.526665  -78.024103  -19.93542  -10.566516  -26.927874  -12.513993  3.68246  21.050866  7.789582  0.727451  7.060197  -39.959984  4.754705  -19.136522  -18.623264  13.803756  15.151975  7.087701  3.889141  -0.975641  1.859162  2.005547  -0.790596  5.026363  5.538468  -2.009462  5.026363  5.538468  -2.009462  13.800479  -2.399715  11.436256  167.550306  20.111857  -160.462635  -2.836012  12.692606  104.218717  10.892532  -4.178242  43.428465  41.530945  -25.426317  22.935186  -139.903636  81.161299  -134.993124  -8.269343  14.202058  -49.635316  82.258267  -34.509245  21.44982  -23.06099  -4.351675  1.38559  -17.277644  -3.321676  0.875549  
0.0  93.25843  0.0  9.220493  27.805321  -78.111769  -20.099036  -10.555016  -27.336943  -11.927343  4.221783  22.038813  7.722313  0.713113  7.004353  -40.349453  4.757917  -19.481486  -18.503905  14.715576  15.803228  7.290243  4.040896  -1.037922  1.83885  2.015852  -0.764762  4.972692  5.564106  -1.939712  4.972692  5.564106  -1.939712  14.34985  -2.257023  11.194359  167.491151  19.960026  -159.662417  -2.523941  12.627191  104.394913  10.099613  -4.600214  43.386678  41.56227  -25.464873  22.831043  -133.481009  81.443207  -128.240549  -10.763441  11.301884  -51.999293  80.415611  -33.234858  23.020212  -23.273192  -4.328294  1.435849  -17.436515  -3.306617  0.9127  
0.0  93.25843  0.0  9.380042  27.898043  -78.25265  -19.798547  -10.216351  -27.572152  -11.310681  4.378755  23.017671  7.364309  0.72964  6.882344  -40.685643  4.801827  -19.812626  -18.406817  15.527065  16.389849  7.46978  4.135011  -1.070979  1.838002  2.027112  -0.731918  4.972936  5.592389  -1.849053  4.972936  5.59239  -1.849052  14.627345  -2.000712  10.849547  167.578455  19.86233  -158.754234  -2.297149  12.621715  104.500476  9.342487  -5.138586  43.488105  41.452031  -25.425075  22.750743  -125.831431  81.779711  -120.385445  -13.191318  8.317762  -54.592143  78.989208  -31.819277  24.320413  -23.431324  -4.281868  1.496162  -17.554936  -3.274506  0.958692  
0.0  93.25843  0.0  9.527248  27.8037  -78.385258  -17.795043  -9.542136  -26.925769  -12.415198  4.75011  22.611878  6.651379  0.718672  6.604828  -40.857217  4.874713  -20.15075  -18.101334  16.266506  17.019332  7.599591  4.231249  -1.137639  1.852803  2.047415  -0.695618  5.016207  5.645504  -1.746917  5.016207  5.645505  -1.746918  14.714094  -1.632735  10.418213  167.783539  19.859871  -157.699985  -2.149896  12.505379  104.559187  8.381777  -5.766359  43.851589  41.224378  -25.348203  22.600225  -116.746623  82.060775  -111.24102  -15.324912  5.300198  -57.35795  77.83974  -30.185291  25.414004  -23.549408  -4.2608  1.557029  -17.643177  -3.261377  1.00441  
0.0  93.25843  0.0  9.667273  27.490641  -78.52852  -16.554507  -8.707927  -26.880551  -12.709942  4.685984  23.204473  6.043978  0.724394  6.36704  -40.797094  4.952929  -20.482708  -17.823782  16.90357  17.597624  7.633085  4.325655  -1.189618  1.878201  2.074258  -0.668223  5.087692  5.717359  -1.667722  5.087692  5.717359  -1.667722  14.649249  -1.169521  10.023817  168.159746  19.967145  -156.465137  -2.097994  12.218291  104.594599  7.095778  -6.378899  44.383239  40.941398  -25.272292  22.452723  -106.147174  82.192246  -100.685645  -17.002381  2.307638  -60.342861  76.780299  -28.263457  26.407267  -23.622161  -4.253087  1.641487  -17.697192  -3.259078  1.06764  
0.0  93.25843  0.0  9.800175  26.971405  -78.673335  -14.919249  -7.726842  -26.709919  -13.744285  4.796694  23.41083  5.848429  0.743133  6.293197  -40.645525  5.028476  -20.884377  -17.324076  17.47139  18.26172  7.80423  4.492019  -1.283354  1.899726  2.103058  -0.661029  5.146822  5.795971  -1.64397  5.146822  5.795971  -1.64397  14.5169  -0.632279  9.722004  168.691736  20.20717  -155.063622  -2.134947  11.838982  104.63145  5.445998  -6.993367  44.910766  40.612594  -25.222166  22.382271  -94.870538  82.145463  -89.575628  -18.23012  -0.593634  -63.567505  75.839417  -26.135622  27.301646  -23.608742  -4.227703  1.752978  -17.68655  -3.244283  1.152456  
0.0  93.25843  0.0  9.877157  26.141463  -78.870221  -13.005317  -6.603362  -26.332644  -15.201005  4.862814  23.373795  5.884169  0.71152  6.251839  -40.30548  5.058987  -21.260336  -16.828837  17.962388  18.831562  7.845755  4.605182  -1.360462  1.936618  2.131744  -0.673354  5.246341  5.87614  -1.672238  5.246341  5.87614  -1.672238  14.361314  -0.109071  9.510438  169.334969  20.521537  -153.484985  -2.1972  11.495053  104.670446  3.613385  -7.746986  45.344205  40.21956  -25.241946  22.287723  -83.729782  82.096724  -78.725755  -19.082263  -3.384114  -66.993311  75.101362  -23.97509  28.007801  -23.510025  -4.182776  1.889739  -17.611938  -3.215474  1.257586  
0.0  93.25843  0.0  9.914812  24.960953  -79.151828  -12.278936  -5.229438  -26.459833  -15.521352  4.390382  24.239237  5.749687  0.719298  6.050432  -39.781652  5.100354  -21.652548  -16.14674  18.399515  19.42619  7.93746  4.74813  -1.44311  1.989702  2.17152  -0.692361  5.389424  5.987553  -1.716365  5.389425  5.987553  -1.716365  14.168375  0.289054  9.286943  170.119898  20.810309  -151.808365  -2.274125  11.264918  104.754069  1.920996  -8.734813  45.706879  39.716201  -25.247155  22.258093  -72.17942  82.009671  -67.734692  -19.603688  -6.001041  -70.553146  74.429473  -21.981588  28.515554  -23.309008  -4.163408  2.036654  -17.460406  -3.205822  1.370011  
0.0  93.25843  0.0  9.986843  23.412667  -79.486851  -10.423467  -3.969572  -25.735271  -16.528359  4.04998  24.232734  5.698113  0.794179  5.921178  -39.037535  5.170599  -22.0607  -15.423164  18.824785  19.977494  7.977751  4.866676  -1.56261  2.052775  2.223627  -0.718199  5.559007  6.133526  -1.777091  5.559007  6.133525  -1.777091  13.912692  0.635424  9.081812  170.919163  21.075963  -150.120871  -2.461543  11.089055  104.933254  0.563914  -10.058052  46.007182  38.980337  -25.137838  22.224959  -59.106896  82.105808  -55.706537  -19.91818  -8.44217  -74.133924  73.709116  -20.265755  28.729044  -22.970506  -4.122803  2.172966  -17.206034  -3.179165  1.476174  
0.0  93.25843  0.0  10.081592  21.408709  -79.856092  -8.617184  -2.911792  -24.924802  -17.061848  3.694723  24.195154  5.543277  0.905244  5.735778  -37.937259  5.223329  -22.492222  -14.639942  19.278976  20.447489  8.030006  5.004803  -1.672064  2.131106  2.296416  -0.756113  5.768836  6.337522  -1.86741  5.768835  6.337522  -1.86741  13.5093  0.953157  8.86631  171.895083  21.386922  -148.437478  -2.681261  10.925627  105.241567  -0.46619  -11.712061  46.188143  38.053891  -24.967824  22.218403  -43.601965  82.261721  -41.832303  -20.111385  -10.757901  -77.596349  72.880391  -18.684242  28.728492  -22.454848  -4.074834  2.299157  -16.818982  -3.145705  1.576109  
